<svg clip-rule="evenodd" fill-rule="evenodd" stroke-linejoin="round" stroke-miterlimit="2" viewBox="0 0 560 400" xmlns="http://www.w3.org/2000/svg" xmlns:xlink="http://www.w3.org/1999/xlink"><linearGradient id="a" gradientUnits="userSpaceOnUse" x1="6.5974" x2="29.9916" y1="17.3726" y2="17.3726"><stop offset="0" stop-color="#9588ff"/><stop offset="1" stop-color="#6d3cff"/></linearGradient><linearGradient id="b" gradientUnits="userSpaceOnUse" x1=".051948" x2="23.446148" y1="22.2582" y2="22.2582"><stop offset="0" stop-color="#c188ff"/><stop offset="1" stop-color="#8d50ff"/></linearGradient><linearGradient id="c" gradientUnits="userSpaceOnUse" x1=".082823" x2="8.228863" y1="2.92453" y2="2.92453"><stop offset="0" stop-color="#c188ff"/><stop offset="1" stop-color="#9281ff"/></linearGradient><g transform="matrix(3.11042 0 0 3.10371 99.8383 137.985)"><g fill-rule="nonzero"><path d="m25.394 13.723c-.017-.017-.035-.035-.069-.052l-17.36-13.515c-.199-.147-.459-.182-.675-.078-.225.095-.364.329-.364.571l-.329 22.035v.346c0 6.451 5.238 11.697 11.697 11.697s11.697-5.238 11.697-11.697c.018-3.792-1.801-7.169-4.597-9.307zm-17.204-11.766 12.286 9.549c-.701-.129-1.428-.199-2.182-.199-4.467 0-8.355 2.52-10.337 6.208zm10.113 31.472c-5.732 0-10.398-4.667-10.416-10.399v-.311c.165-5.602 4.771-10.104 10.399-10.104 5.731 0 10.415 4.666 10.415 10.415.018 5.723-4.649 10.399-10.398 10.399z" fill="url(#a)"/><path d="m18.433 18.667c-.017 0-.017-.018-.017-.018l-17.282-13.939c-.199-.165-.459-.199-.684-.078-.225.095-.363.329-.363.571l-.035 22.754v.303c0 6.45 5.238 11.697 11.697 11.697s11.697-5.238 11.697-11.689c.017-3.965-1.983-7.489-5.013-9.601zm-17.074-12.122 12.693 10.234c-.753-.147-1.524-.225-2.312-.225-4.519 0-8.467 2.589-10.398 6.355zm10.39 32.122c-5.732 0-10.416-4.667-10.416-10.416 0-5.732 4.667-10.416 10.416-10.416 5.732 0 10.416 4.667 10.416 10.416s-4.667 10.416-10.416 10.416z" fill="url(#b)"/><path d="m.727 5.844c-.216 0-.407-.095-.537-.294-.199-.295-.112-.702.182-.901l6.849-4.536c.294-.2.701-.113.9.181.199.295.113.702-.182.901l-6.857 4.528c-.112.087-.242.121-.355.121z" fill="url(#c)"/><path d="m42.511 29.576c-.381-.018-.771-.035-1.143-.07-.372-.034-.771-.069-1.143-.112-.381-.052-.719-.113-1.03-.199v-16.182c.311-.078.658-.147 1.03-.199.381-.052.753-.078 1.143-.113.381-.034.771-.052 1.143-.069.381-.017.718-.017 1.065-.017.935 0 1.818.069 2.64.216.823.147 1.542.39 2.13.736.606.346 1.083.805 1.429 1.359.346.555.528 1.264.528 2.078 0 .918-.216 1.671-.641 2.26-.424.589-.987 1.03-1.688 1.307.952.295 1.723.754 2.277 1.377s.849 1.507.849 2.649c0 1.671-.606 2.935-1.801 3.767-1.195.831-3.1 1.264-5.697 1.264-.355-.035-.719-.035-1.091-.052zm1.324-9.784c.555 0 1.1-.034 1.594-.112.51-.078.935-.225 1.307-.425.364-.216.658-.476.866-.822.216-.346.311-.771.311-1.281 0-.477-.112-.884-.329-1.213-.216-.329-.528-.588-.9-.805-.381-.199-.831-.346-1.342-.441-.528-.096-1.065-.148-1.636-.148-.572 0-1.031 0-1.36.018-.329.017-.623.034-.883.069v5.16zm-2.406 7.749c.181.017.381.035.606.052.199.017.441.035.718.035s.589.017.953.017c.675 0 1.307-.052 1.913-.13s1.134-.242 1.593-.476c.459-.225.823-.537 1.1-.935.277-.407.407-.901.407-1.524 0-.537-.096-1.013-.312-1.394-.199-.381-.494-.675-.883-.9-.381-.225-.831-.39-1.377-.476-.528-.096-1.134-.148-1.783-.148h-2.935z"/><path d="m53.472 14.26c-.277-.26-.407-.624-.407-1.065 0-.442.13-.805.407-1.065s.606-.39.996-.39c.389 0 .718.13.995.39s.407.623.407 1.065c0 .441-.13.805-.407 1.065-.277.259-.606.389-.995.389-.39 0-.719-.13-.996-.389z"/></g><path d="m53.385 16.926h2.182v12.528h-2.182z"/><path d="m65.134 28.693c-.537.199-1.16.294-1.887.294-.736 0-1.429-.113-2.078-.364-.658-.242-1.212-.606-1.706-1.117-.493-.51-.866-1.134-1.143-1.887s-.424-1.654-.424-2.701c0-.918.13-1.749.39-2.52.259-.77.658-1.428 1.16-1.982.511-.555 1.134-.987 1.87-1.29s1.576-.477 2.494-.477c1.013 0 1.896.078 2.666.225.753.148 1.394.295 1.914.425v11.186c0 1.931-.494 3.325-1.455 4.19-.961.866-2.441 1.29-4.407 1.29-.77 0-1.489-.069-2.182-.199-.684-.13-1.281-.277-1.766-.459l.39-1.948c.441.182.969.329 1.601.476.641.13 1.29.2 1.983.2 1.29 0 2.225-.26 2.805-.806.572-.528.849-1.376.849-2.519v-.528c-.173.147-.537.312-1.074.511zm.191-9.974c-.364-.052-.866-.078-1.49-.078-1.177 0-2.077.389-2.718 1.177s-.952 1.836-.952 3.126c0 .718.095 1.342.259 1.853.182.51.424.935.719 1.281.312.346.658.589 1.065.753.389.165.805.243 1.229.243.572 0 1.117-.078 1.593-.243.494-.164.866-.363 1.143-.589v-7.324c-.19-.087-.485-.139-.848-.199z" fill-rule="nonzero"/><path d="m71.506 17.307c.407-1.099.988-2 1.689-2.736s1.541-1.281 2.493-1.653c.953-.381 1.948-.554 3.013-.554 1.048 0 2.035.181 2.961.554.935.381 1.749.917 2.459 1.653s1.264 1.637 1.671 2.736c.407 1.1.624 2.355.624 3.784 0 1.428-.217 2.684-.624 3.783-.407 1.1-.969 2-1.671 2.736-.701.736-1.524 1.282-2.459 1.654-.935.381-1.913.554-2.961.554-1.065 0-2.06-.182-3.013-.554-.952-.381-1.766-.918-2.493-1.654-.701-.736-1.282-1.636-1.689-2.736-.406-1.099-.623-2.355-.623-3.783 0-1.429.191-2.684.623-3.784zm2.139 6.537c.242.823.606 1.524 1.065 2.113.459.571 1.03 1.03 1.688 1.342.676.311 1.412.476 2.243.476s1.575-.165 2.225-.476c.649-.312 1.212-.754 1.671-1.342.459-.572.822-1.282 1.065-2.113.242-.831.381-1.749.381-2.753 0-1.013-.13-1.931-.381-2.753-.243-.823-.606-1.524-1.065-2.113-.459-.571-1.013-1.03-1.671-1.342s-1.411-.476-2.225-.476c-.823 0-1.576.164-2.243.476-.666.312-1.229.753-1.688 1.342-.459.572-.823 1.281-1.065 2.113-.242.831-.381 1.749-.381 2.753.009 1.013.139 1.931.381 2.753z" fill-rule="nonzero"/><path d="m99.022 27.446c-.442-.736-.935-1.507-1.438-2.294-.528-.806-1.047-1.602-1.601-2.425-.554-.822-1.117-1.601-1.654-2.372s-1.082-1.472-1.593-2.165c-.511-.675-.996-1.264-1.429-1.783v13.039h-2.225v-16.693h1.801c.736.805 1.524 1.741 2.355 2.805.831 1.065 1.671 2.165 2.494 3.308.822 1.134 1.593 2.242 2.329 3.342.718 1.099 1.342 2.06 1.835 2.918v-12.373h2.225v16.693h-1.896c-.364-.589-.762-1.264-1.203-2z" fill-rule="nonzero"/><path d="m105.281 12.753h9.922v2h-7.645v4.961h6.797v1.948h-6.797v5.784h8.234v2h-10.511z" fill-rule="nonzero"/></g></svg>