<?xml version="1.0" encoding="utf-8"?>
<!-- Generator: Adobe Illustrator 24.3.0, SVG Export Plug-In . SVG Version: 6.00 Build 0)  -->
<svg version="1.0" id="katman_1" xmlns="http://www.w3.org/2000/svg" xmlns:xlink="http://www.w3.org/1999/xlink" x="0px" y="0px"
	 viewBox="0 0 841.89 595.28" style="enable-background:new 0 0 841.89 595.28;" xml:space="preserve">
<style type="text/css">
	.st0{fill:#F0B90B;}
</style>
<path class="st0" d="M212.45,263.85l-18.7,18.5l-33.94-34.76l-33.47,33.72L107,261.56l51.74-51.91L212.45,263.85z"/>
<path class="st0" d="M106.86,332.42l18.46-18.74l33.36,34.97c13.48-11.53,23.86-23.96,35.53-34.6l18.36,19
	c-17.27,17.3-35.2,35.41-52.64,52.96L106.86,332.42z"/>
<path class="st0" d="M336.69,260.33l5.32,3.72c2.59,1.72,4.67,4.11,6.02,6.93c1.35,2.81,1.93,5.94,1.67,9.06
	c-0.26,3.12-1.35,6.1-3.16,8.65c-1.8,2.54-4.25,4.55-7.09,5.81c-3.4,1.69-7.1,2.7-10.88,2.97c-12.08,0.37-24.21,0.14-36.82,0.14
	v-70.03c13.9-0.09,27.91-1.82,41.55,1.98c12.87,3.56,16.53,18.01,7.66,28.09C340.06,258.66,338.55,259.14,336.69,260.33z
	 M305.66,284.84c8.15-0.55,15.86,1.18,23.56-1.14c1.65-0.35,3.12-1.28,4.14-2.63c1.02-1.35,1.53-3.03,1.43-4.72
	c0.05-0.91-0.09-1.82-0.39-2.68c-0.31-0.86-0.78-1.64-1.39-2.32c-0.61-0.67-1.35-1.21-2.17-1.59c-0.82-0.38-1.71-0.59-2.61-0.62
	c-7.46-0.5-15-0.14-22.58-0.14V284.84z M305.48,255.83c6.59,0.37,13.14,0.98,19.6-0.32c1.69-0.23,3.23-1.07,4.34-2.38
	c1.11-1.3,1.7-2.97,1.66-4.69c0.11-1.59-0.37-3.16-1.33-4.41c-0.96-1.26-2.35-2.11-3.9-2.41c-6.69-1.61-13.66-1.68-20.37-0.19
	V255.83z"/>
<path class="st0" d="M562.03,227.67h12.6l31.66,41.6l1.79-0.59v-40.86h14.02v69.21h-12.31l-32.03-41.99l-1.9,0.52
	c-0.76,6.68-0.25,13.45-0.33,20.19c-0.09,6.73,0,13.86,0,21.33h-13.47L562.03,227.67z"/>
<path class="st0" d="M417.45,255.04V297h-14.18v-69.21h13.1c10.95,13.5,20.72,28.13,32.03,41.51l1.43-0.69v-40.69h13.61v69.11
	h-11.91l-32.27-42.46L417.45,255.04z"/>
<path class="st0" d="M714.84,296.98v-69.21h51.76v13.39h-36.19v14.75h31.92v12.64h-31.92v15.86h36.13v12.52L714.84,296.98z"/>
<path class="st0" d="M549.08,297.37h-14.94l-6.71-15.41h-29.91l-6.58,15.27h-14.51c10.01-23.62,19.66-46.63,29.38-69.71h13.79
	L549.08,297.37z M503.11,268.23c6.91,0.91,12.51,1.44,18.73-0.4l-8.49-20.59h-1.7L503.11,268.23z"/>
<path class="st0" d="M700.4,237.26c-0.42,0.93-0.93,1.81-1.51,2.64c-2.2,2.51-4.49,4.93-6.92,7.57c-6.51-4.33-12.94-8.78-21.07-7.21
	c-4.97,0.9-9.42,3.61-12.53,7.61c-3.3,4.4-5.03,9.8-4.91,15.32c0.12,5.52,2.09,10.83,5.58,15.09c7.86,9.13,18.01,8.97,33.63-0.61
	c1.43,1.33,3.07,2.7,4.58,4.17c1.5,1.47,2.59,2.74,3.81,4.07c-9.03,14.33-34.78,17.43-49.64,5.19
	c-15.92-13.09-17.57-37.49-4.03-53.22C660.18,223.03,690.53,223.78,700.4,237.26z"/>
<path class="st0" d="M291.64,346.14v-5.97h269.02c0.16,1.8,0.31,3.59,0.53,5.97H291.64z"/>
<path class="st0" d="M685.1,319.35c8.58,0,16.57-0.07,24.62,0c5.38,0,9.74,2.05,12,7.35c2.26,5.31,0.69,9.73-3.26,13.58
	c-0.53,0.6-1.01,1.25-1.43,1.93c0.65,0.67,1.35,1.27,2.09,1.82c4.88,2.78,7.15,7.09,6.16,12.54s-4.83,9.53-10.57,10.09
	c-9.62,1.02-19.31,1.44-29.63,2.13L685.1,319.35z M693.09,360.9c6.48-0.29,12.57-0.29,18.59-0.94c1.54-0.2,2.96-0.95,3.99-2.13
	c1.03-1.18,1.6-2.69,1.6-4.26c0-1.57-0.56-3.09-1.6-4.26c-1.03-1.18-2.45-1.94-3.99-2.13c-6.22-0.55-12.51-0.16-18.66-0.16
	L693.09,360.9z M693.09,339.52c4.97,0.22,9.95,0.18,14.91-0.14c3.38-0.39,6.28-2.48,6.45-6.47c0.17-3.99-2.27-6.33-6-6.57
	c-5.03-0.33-10.12-0.09-15.37-0.09V339.52z"/>
<path class="st0" d="M380.9,227.85v69.35h-13.37v-69.35H380.9z"/>
<path class="st0" d="M674.81,367.98h-8.19l-5.34-12.17h-23.45l-5.72,12.23h-7.73c7.15-16.68,14.2-32.89,21.36-49.5l7.49-0.4
	C660.35,334.6,667.42,350.92,674.81,367.98z M658.14,348.14l-8.76-20.19c-3.2,7.7-5.72,13.7-8.42,20.19H658.14z"/>
<path class="st0" d="M734.47,360.86l3.64-4.93c4.29,1.85,8.13,4.2,12.37,5.21c4.23,1.01,8.58,1.05,12.31-3.52l0.26-5.77
	c-1.27-1.14-2.69-2.11-4.2-2.88c-4.29-1.44-8.58-2.48-12.87-3.94c-7.28-2.51-10.39-6.96-10-13.8c0.19-3.14,1.45-6.12,3.57-8.43
	c2.11-2.31,4.95-3.82,8.04-4.27c7.69-1.23,15.07-0.12,21.86,5.54l-3.61,5.36c-7.04-2.64-13.84-8.02-21.35-0.95v7.01
	c3.61,1.44,7.26,2.88,10.97,4.22c1.99,0.72,4.14,0.94,6.12,1.67c7.15,2.65,10.52,7.76,9.69,14.75c-0.45,3.11-1.92,5.97-4.17,8.14
	c-2.25,2.17-5.15,3.52-8.24,3.84C750.11,369.12,741.82,367.84,734.47,360.86z"/>
<path class="st0" d="M90.55,279.91l18.37,18.38l-19.07,18.27l-18.59-18.87L90.55,279.91z"/>
<path class="st0" d="M160.75,279.08l17.6,17.72l-19.27,18.83l-17.16-17.48L160.75,279.08z"/>
<path class="st0" d="M228.73,316.06l-17.7-17.84l18.71-18.74l17.36,18.07L228.73,316.06z"/>
<path class="st0" d="M582.06,319.77h7.66v40.96h25.39v7.05h-33.06V319.77z"/>
</svg>
