<?xml version="1.0" encoding="utf-8"?>
<!-- Generator: Adobe Illustrator 28.1.0, SVG Export Plug-In . SVG Version: 6.00 Build 0)  -->
<svg version="1.1" id="katman_1" xmlns="http://www.w3.org/2000/svg" xmlns:xlink="http://www.w3.org/1999/xlink" x="0px" y="0px"
	 viewBox="0 0 800 600" style="enable-background:new 0 0 800 600;" xml:space="preserve">
<style type="text/css">
	.st0{fill:#3C1A26;}
	.st1{fill:#29121A;}
	.st2{fill:#421D2A;}
	.st3{fill:#DB5B54;}
	.st4{fill:#A24741;}
	.st5{fill:#BD967F;}
	.st6{fill:#886B59;}
	.st7{fill:#B88D73;}
	.st8{fill:#FFFFFF;}
	.st9{fill:#493239;}
	.st10{fill:#CAA390;}
	.st11{fill:#C4524C;}
	.st12{fill:#F2716A;}
	.st13{fill:#898989;}
	.st14{fill:#888888;}
	.st15{fill:#D6D6D6;}
	.st16{fill:#FDFDFD;}
	.st17{fill:#DCDCDC;}
</style>
<path class="st0" d="M521.5,383l0.1,35.2l-53.9,31.1l-0.1-35.1L521.5,383z"/>
<path class="st1" d="M467.7,449.3l-95.3-55.4l-0.1-35.2l95.4,55.4V449.3z"/>
<path class="st2" d="M467.6,414.2l-95.4-55.4l53.9-31.1l95.4,55.4L467.6,414.2z"/>
<path class="st0" d="M459.7,418.4l0.1,35.2l-53.9,31.1l-0.1-35.2L459.7,418.4z"/>
<path class="st1" d="M405.9,484.7l-95.4-55.4l-0.1-35.1l95.4,55.4L405.9,484.7z"/>
<path class="st2" d="M405.8,449.6l-95.4-55.4l53.9-31.1l95.3,55.4L405.8,449.6z"/>
<path class="st3" d="M519.8,322.3l0.1,50.1L389.1,448l-0.1-50.1L519.8,322.3z"/>
<path class="st4" d="M389.1,448l-130-75.6l-0.1-50.1l130,75.6L389.1,448z"/>
<path class="st3" d="M388.9,397.8l-130-75.6l130.9-75.6l130,75.6L388.9,397.8z"/>
<path class="st5" d="M519.1,222l0.3,100.3l-130.9,75.6l-0.3-100.3L519.1,222z"/>
<path class="st6" d="M388.5,397.8l-130-75.6L258.2,222l130,75.6L388.5,397.8z"/>
<path class="st7" d="M388.2,297.5l-130-75.6l130.9-75.6l130,75.6L388.2,297.5z"/>
<path class="st8" d="M453.8,285.6l0.1,20l-17.5,10.1v20l17.5-10.1L419,345.8l-0.1-40.1L453.8,285.6z"/>
<path class="st9" d="M453.9,305.6l0.1,20.1l-17.5,10.1v-20L453.9,305.6z"/>
<path class="st8" d="M505.2,255.9l0.1,20.1l-17.5,10.1v20l17.5-10.1l-34.9,20.1l-0.1-40.1L505.2,255.9z"/>
<path class="st9" d="M505.2,276v20l-17.5,10.1v-20L505.2,276z"/>
<path class="st6" d="M310.2,422.5l-0.1,30.1l-43.6-25.2l0.1-30.1L310.2,422.5z"/>
<path class="st5" d="M310.2,422.5l43.3-25.2l-0.1,30.1l-43.3,25.2L310.2,422.5z"/>
<path class="st10" d="M266.5,397.3l43.3-25.2l43.6,25.2l-43.3,25.2L266.5,397.3z"/>
<path class="st4" d="M323.3,410v20.1l-13.1-7.6l-43.6-25.2l-13.1-7.6l0.1-20.1L323.3,410z"/>
<path class="st11" d="M323.3,410l43.3-25.2v20.1L323.3,430V410z"/>
<path class="st3" d="M253.5,369.7l43.3-25.2l69.8,40.3L323.3,410L253.5,369.7z"/>
<path class="st3" d="M519.2,177.1l0.1,50.1l-130.9,75.6l-0.1-50.1L519.2,177.1z"/>
<path class="st4" d="M388.5,302.8l-130-75.6l-0.1-50.1l130,75.6L388.5,302.8z"/>
<path class="st12" d="M388.3,252.7l-130-75.6l130.9-75.6l130,75.6L388.3,252.7z"/>
<path class="st3" d="M495.4,265.3c10.9-6.4,22.6-11.2,34.9-14.3v20c-12.3,3-24,7.8-34.9,14.3c-12.6,7.4-24.2,16.1-34.9,26v-20
	C471.1,281.4,482.8,272.7,495.4,265.3z"/>
<path class="st4" d="M460.5,311.4l-43.3-25.2l-0.1-20.1l43.3,25.2L460.5,311.4z"/>
<path class="st12" d="M460.5,291.3l-43.3-25.2c10.6-9.9,22.3-18.7,34.9-26c12.5-7.4,34.6-14.8,34.6-14.8l43.7,25.8
	c0,0-22.4,6.7-35,14.1C482.8,272.7,471.1,281.4,460.5,291.3z"/>
<path class="st13" d="M501.6,362.4l-8.7-5l-2.3-1.6l8.7,5L501.6,362.4z"/>
<path class="st13" d="M484.8,380.9l-8.7-5l-4.5-4l8.7,5L484.8,380.9z"/>
<path class="st14" d="M397.1,403l-8.7-5v-3.2l8.7,5V403z"/>
<path class="st15" d="M528.8,309.4v8.8v5.5v3.2l-27.3,35.5l-2.3-1.7l-14.4,20.2l-4.5-4l-17.2,26.6l-17.3-6.7l-4.5,9.3l-14.5-3.5
	l-2.3,4.3l-27.4-4v-3.2v-14.3L528.8,309.4z"/>
<path class="st14" d="M397.1,399.8l-8.7-5v-14.3l8.7,5V399.8z"/>
<path class="st16" d="M397,385.4l-8.7-5l131.8-76.1l8.7,5L397,385.4z"/>
<path class="st16" d="M323.6,316.4l8.7-5l56.1,69l-8.7,5L323.6,316.4z"/>
<path class="st16" d="M379.8,385.4l8.7-5l8.7,5l-8.7,5L379.8,385.4z"/>
<path class="st15" d="M388.5,390.4l8.7-5V403l-8.7,5V390.4z"/>
<path class="st13" d="M323.8,275.3l-0.1,41.2l56.1,68.9l8.7,5V408l-65-39.6l-15.5-8.9l-7.7-4.5v-17.8l7.8-29.8l0.1-41.2L323.8,275.3
	z"/>
<path class="st16" d="M323.8,275.3l8.7-5l-0.1,41.2l-8.7,5L323.8,275.3z"/>
<path class="st17" d="M308.3,266.3l8.7-5l15.5,8.9l-8.7,5L308.3,266.3z"/>
</svg>
