<?xml version="1.0" encoding="utf-8"?>
<!-- Generator: Adobe Illustrator 24.3.0, SVG Export Plug-In . SVG Version: 6.00 Build 0)  -->
<svg version="1.0" id="katman_1" xmlns="http://www.w3.org/2000/svg" xmlns:xlink="http://www.w3.org/1999/xlink" x="0px" y="0px"
	 viewBox="0 0 342 244" style="enable-background:new 0 0 342 244;" xml:space="preserve">
<style type="text/css">
	.st0{fill-rule:evenodd;clip-rule:evenodd;fill:#2E79DF;}
	.st1{fill:#282828;}
</style>
<g id="定稿">
	<g id="Sender-svg" transform="translate(-240.000000, -696.000000)">
		<g id="stack-Normal" transform="translate(240.000000, 696.000000)">
			<path id="形状结合" class="st0" d="M189.73,80.88c1.77,0.64,3.39,1.48,4.83,2.51c1.92,1.37,3.51,3.08,4.7,5.12
				c0.61,1.05,1.09,2.15,1.44,3.29c0.35,1.15,0.58,2.34,0.68,3.55c0.73,8.55-4.58,18.49-14.03,25.88l-0.43,0.33
				c-1.64,1.25-3.41,2.43-5.29,3.51L138.34,150c-1.27-8.38,1.07-16.99,6.43-23.63c2.32-2.87,5.2-5.37,8.59-7.33l25.29-14.56
				c3.45-1.98,5.64-5.3,6.29-8.91c0.52-2.87,0.06-5.92-1.51-8.64c-1.26-2.18-3.08-3.85-5.17-4.93c-2.38-1.23-5.12-1.71-7.82-1.32
				c0.15-0.07,0.31-0.14,0.46-0.21c2.3-0.57,4.56-0.93,6.76-1.08C182.06,79.09,186.19,79.59,189.73,80.88z M203.66,32
				c1.27,8.38-1.07,16.99-6.43,23.63c-2.32,2.87-5.2,5.37-8.59,7.33l-25.29,14.56c-3.45,1.98-5.64,5.3-6.29,8.91
				c-0.52,2.87-0.06,5.92,1.51,8.64c1.26,2.18,3.08,3.85,5.17,4.93c2.38,1.23,5.12,1.71,7.82,1.32c-0.15,0.07-0.31,0.14-0.46,0.21
				c-2.3,0.57-4.56,0.93-6.76,1.08c-4.39,0.31-8.52-0.19-12.07-1.48c-1.77-0.64-3.39-1.48-4.83-2.51c-1.92-1.37-3.51-3.08-4.7-5.12
				c-0.61-1.05-1.09-2.15-1.44-3.29c-0.35-1.15-0.58-2.34-0.68-3.55c-0.73-8.55,4.58-18.49,14.03-25.88l0.43-0.33
				c1.64-1.25,3.41-2.43,5.29-3.51L203.66,32z"/>
			<path id="形状结合_1_" class="st1" d="M141.67,196.87c0,0.48-0.04,1.17-0.11,2.07h-23.22c0.41,2.2,1.47,3.94,3.19,5.22
				c1.72,1.28,3.85,1.93,6.4,1.93c3.25,0,5.93-1.08,8.03-3.24l3.71,4.3c-1.33,1.6-3.01,2.81-5.04,3.63
				c-2.03,0.82-4.32,1.23-6.87,1.23c-3.25,0-6.11-0.65-8.59-1.95s-4.39-3.12-5.73-5.44c-1.35-2.33-2.02-4.96-2.02-7.9
				c0-2.9,0.66-5.52,1.97-7.84c1.31-2.33,3.13-4.14,5.46-5.44s4.95-1.95,7.87-1.95c2.88,0,5.46,0.64,7.73,1.93
				c2.27,1.28,4.04,3.09,5.32,5.42C141.03,191.13,141.67,193.82,141.67,196.87z M126.71,187.04c-2.22,0-4.09,0.66-5.62,1.98
				c-1.53,1.32-2.47,3.08-2.8,5.28h16.79c-0.3-2.16-1.2-3.91-2.71-5.25C130.84,187.71,128.96,187.04,126.71,187.04z M163.81,181.46
				c3.73,0,6.72,1.1,8.98,3.29c2.25,2.2,3.38,5.45,3.38,9.77v17.08h-6.93v-16.19c0-2.61-0.61-4.57-1.83-5.89
				c-1.22-1.32-2.96-1.98-5.21-1.98c-2.55,0-4.56,0.77-6.04,2.32c-1.48,1.54-2.22,3.77-2.22,6.67v15.07h-6.93v-29.81h6.59v3.85
				c1.15-1.38,2.59-2.42,4.32-3.13C159.67,181.81,161.63,181.46,163.81,181.46z M212.93,170.18v41.43h-6.65v-3.85
				c-1.15,1.41-2.56,2.48-4.24,3.18c-1.68,0.71-3.54,1.06-5.57,1.06c-2.84,0-5.4-0.63-7.67-1.9c-2.27-1.27-4.05-3.06-5.35-5.39
				c-1.29-2.33-1.94-5-1.94-8.01s0.65-5.68,1.94-7.98s3.08-4.09,5.35-5.36c2.27-1.27,4.83-1.9,7.67-1.9c1.96,0,3.75,0.33,5.37,1
				c1.63,0.67,3.01,1.67,4.16,3.01v-15.3H212.93z M197.3,206.03c1.66,0,3.16-0.38,4.49-1.14c1.33-0.76,2.38-1.85,3.16-3.27
				s1.16-3.05,1.16-4.91s-0.39-3.5-1.16-4.91c-0.78-1.41-1.83-2.5-3.16-3.27c-1.33-0.76-2.83-1.14-4.49-1.14s-3.16,0.38-4.49,1.14
				c-1.33,0.76-2.38,1.85-3.16,3.27c-0.78,1.41-1.16,3.05-1.16,4.91s0.39,3.5,1.16,4.91s1.83,2.5,3.16,3.27
				C194.14,205.64,195.64,206.03,197.3,206.03z M248.53,196.87c0,0.48-0.04,1.17-0.11,2.07H225.2c0.41,2.2,1.47,3.94,3.19,5.22
				c1.72,1.28,3.85,1.93,6.4,1.93c3.25,0,5.93-1.08,8.03-3.24l3.71,4.3c-1.33,1.6-3.01,2.81-5.04,3.63
				c-2.03,0.82-4.32,1.23-6.87,1.23c-3.25,0-6.11-0.65-8.59-1.95s-4.39-3.12-5.73-5.44c-1.35-2.33-2.02-4.96-2.02-7.9
				c0-2.9,0.66-5.52,1.97-7.84c1.31-2.33,3.13-4.14,5.46-5.44s4.95-1.95,7.87-1.95c2.88,0,5.46,0.64,7.73,1.93s4.04,3.09,5.32,5.42
				C247.89,191.13,248.53,193.82,248.53,196.87z M233.57,187.04c-2.22,0-4.09,0.66-5.62,1.98c-1.53,1.32-2.47,3.08-2.8,5.28h16.79
				c-0.3-2.16-1.2-3.91-2.71-5.25C237.71,187.71,235.82,187.04,233.57,187.04z M260.47,186.15c1.99-3.13,5.5-4.69,10.53-4.69v6.64
				c-0.59-0.11-1.13-0.17-1.61-0.17c-2.7,0-4.8,0.79-6.32,2.37c-1.51,1.58-2.27,3.86-2.27,6.84v14.46h-6.93v-29.81h6.59V186.15z
				 M88.4,212c-3.4,0-6.69-0.49-9.86-1.47c-3.17-0.98-5.68-2.28-7.53-3.9l2.84-6.45c1.81,1.45,4.02,2.63,6.65,3.55
				c2.63,0.92,5.26,1.37,7.91,1.37c3.28,0,5.73-0.53,7.34-1.6c1.62-1.06,2.43-2.47,2.43-4.22c0-1.28-0.45-2.33-1.36-3.16
				c-0.9-0.83-2.05-1.48-3.44-1.95c-1.39-0.47-3.28-1-5.67-1.6c-3.36-0.81-6.08-1.62-8.16-2.43c-2.08-0.81-3.87-2.08-5.36-3.8
				c-1.49-1.73-2.24-4.06-2.24-7c0-2.47,0.66-4.72,1.99-6.74c1.32-2.02,3.32-3.63,5.99-4.82c2.67-1.19,5.94-1.79,9.8-1.79
				c2.69,0,5.34,0.34,7.94,1.02c2.61,0.68,4.85,1.66,6.74,2.94l-2.58,6.45c-1.93-1.15-3.95-2.02-6.05-2.62
				c-2.1-0.6-4.14-0.89-6.11-0.89c-3.24,0-5.64,0.55-7.22,1.66c-1.58,1.11-2.36,2.58-2.36,4.41c0,1.28,0.45,2.32,1.36,3.13
				c0.9,0.81,2.05,1.45,3.44,1.92c1.39,0.47,3.28,1,5.67,1.6c3.28,0.77,5.97,1.57,8.07,2.4c2.1,0.83,3.9,2.1,5.39,3.8
				s2.24,4,2.24,6.9c0,2.47-0.66,4.71-1.99,6.71c-1.32,2-3.33,3.6-6.02,4.79C95.54,211.4,92.26,212,88.4,212z"/>
		</g>
	</g>
</g>
</svg>
